PathFileType	3	(X/Y/Z)	D:\minhoCalibration\240510\subject2_KPNP\preferred\preferred15.trc
DataRate	CameraRate	NumFrames	NumMarkers	Units	OrigDataRate	OrigDataStartFrame	OrigNumFrames
200.0	200.0	15	10	mm	200.0	319	186	
Frame#	Time	Left_Ankle_Outer1			Left_Ankle_Inner1			Left_Knee_Outer1			Left_Knee_Inner1			Left_Wrist1			Right_Wrist1			Right_Knee_Inner1			Right_Knee_Outer1			Right_Ankle_Inner1			Right_Ankle_Outer1			
		X1	Y1	Z1	X2	Y2	Z2	X3	Y3	Z3	X4	Y4	Z4	X5	Y5	Z5	X6	Y6	Z6	X7	Y7	Z7	X8	Y8	Z8	X9	Y9	Z9	X10	Y10	Z10	
319	1.585	-621.26227	131.9977	-772.38684	-606.98846	142.61412	-719.15051	-419.97192	530.30737	-873.32379	-410.77457	510.6145	-772.71075	-560.13287	942.30798	-901.52594	-516.95642	1174.9207	-640.3183	-340.02356	962.15668	-263.27151	-330.91983	1052.1571	-289.31589	-319.65466	1018.6355	143.9899	-300.76334	1113.4392	126.72466
320	1.59	-622.07745	132.05426	-769.04468	-606.89563	142.44666	-716.0769	-424.48828	530.90619	-872.23541	-411.81882	511.05298	-772.45374	-560.32196	943.37744	-898.46045	-515.34937	1176.4016	-639.09973	-326.42715	968.31903	-265.19321	-320.63916	1057.2668	-288.98883	-324.69757	1018.8195	144.39824	-300.10596	1113.6803	129.9872
321	1.595	-622.72845	131.93002	-766.60651	-606.65875	142.29276	-713.98053	-429.02206	531.7478	-870.73041	-412.59253	511.59348	-772.06317	-560.44891	944.6225	-895.63916	-514.43475	1177.6244	-636.80786	-311.39667	970.68335	-270.37601	-309.96548	1059.405	-289.34399	-333.15213	1017.2064	142.43779	-306.24023	1113.5204	132.62798
322	1.6	-623.13892	131.75798	-765.07501	-607.43634	141.96666	-711.99921	-434.05569	531.96332	-868.69482	-413.05194	512.2193	-771.54559	-560.97559	945.35571	-893.39233	-513.44434	1178.2977	-634.63629	-301.311	972.31494	-275.01645	-299.79462	1059.3605	-290.15598	-339.71228	1013.0283	141.37527	-314.55426	1110.4454	131.60988
323	1.605	-623.40753	131.53055	-764.32715	-607.41864	141.51537	-711.58777	-438.70999	532.18109	-866.40314	-413.85501	512.96185	-770.48669	-561.72186	945.98914	-891.17902	-512.3783	1178.562	-632.14526	-297.65344	975.50861	-276.27893	-290.2908	1058.4868	-290.3222	-345.06699	1007.5878	140.36212	-322.98123	1105.842	132.34311
324	1.61	-623.51862	131.15376	-764.32812	-608.57751	140.57779	-711.13904	-442.08652	532.98206	-863.65204	-414.66257	513.8421	-769.16254	-562.78223	946.37524	-888.49939	-511.17249	1178.422	-629.61255	-299.32193	978.67969	-273.61349	-282.41888	1056.1456	-290.55679	-349.26154	1002.3601	139.78424	-326.74472	1099.2354	135.00008
325	1.615	-623.48407	130.77728	-764.84039	-609.06537	140.46028	-710.8432	-444.52661	533.89215	-860.94183	-415.69711	514.77496	-767.30701	-563.47931	946.62946	-886.83759	-510.06662	1178.0037	-627.26135	-303.19943	982.71014	-269.12222	-282.29752	1056.7351	-289.60361	-351.28186	995.54138	141.38475	-327.77722	1093.399	139.82822
326	1.62	-623.4306	130.53516	-765.427	-609.61475	140.17697	-710.91113	-445.83505	535.33539	-858.27582	-417.2543	515.78912	-764.88654	-564.41693	946.92566	-885.26062	-509.10568	1177.5302	-625.17767	-307.78976	987.62372	-265.51404	-288.93307	1066.2419	-287.55774	-349.60922	989.68927	144.29166	-327.7905	1087.7657	145.12146
327	1.625	-623.53992	130.33582	-765.75018	-609.71912	139.38553	-711.8028	-446.62668	536.66174	-855.50543	-419.33759	516.7851	-762.01154	-565.51929	946.85352	-883.50922	-508.03394	1177.127	-623.36432	-310.9989	992.48236	-264.01923	-300.09308	1077.025	-283.58939	-346.2522	981.24866	146.11873	-327.72415	1080.9537	149.91231
328	1.63	-623.66699	130.10139	-765.57446	-610.5896	139.12376	-710.97815	-446.9502	538.0675	-852.84912	-421.91025	517.64105	-758.86517	-566.3855	946.32745	-882.125	-506.75922	1177.0184	-621.81274	-312.48541	996.37921	-263.53635	-313.89194	1084.6232	-277.7728	-343.44592	971.12994	146.72479	-329.38831	1072.0042	154.68275
329	1.635	-623.96234	129.99811	-765.00635	-610.49878	138.68324	-710.87024	-446.90021	539.24689	-850.66376	-424.80032	518.41608	-755.65326	-567.09503	945.71399	-880.04071	-505.31082	1177.4579	-620.82123	-311.88794	1000.3413	-264.05789	-327.51346	1088.0872	-271.56924	-339.74448	961.93359	147.24583	-332.07739	1062.1537	157.91405
330	1.64	-624.24365	129.92673	-764.01532	-610.72339	139.02017	-709.27795	-446.63943	540.30011	-848.61603	-427.91745	519.10022	-752.41241	-567.34003	944.68927	-878.20105	-504.17365	1178.5874	-620.48761	-309.86154	1003.5781	-265.96802	-335.51334	1089.3789	-267.75522	-337.28824	953.92126	148.46703	-336.01727	1054.1115	159.64189
331	1.645	-624.60718	130.11555	-762.73975	-610.75366	138.79903	-708.41394	-446.60071	540.82098	-846.59802	-431.05692	519.77338	-749.2876	-567.06732	943.90112	-875.2005	-503.22342	1180.3309	-620.71814	-308.42148	1005.6711	-267.1582	-339.79123	1088.5762	-264.56412	-337.52362	949.29578	149.44496	-341.63403	1048.6681	161.00632
332	1.65	-624.85461	130.3745	-761.14813	-610.60559	138.72054	-707.35547	-446.34839	541.39612	-844.87103	-434.0567	520.33527	-746.30603	-566.05341	943.43805	-872.94177	-502.46542	1182.3872	-621.29065	-307.59808	1005.4639	-265.11841	-343.43192	1086.6499	-261.41965	-342.20724	947.70984	152.83621	-347.43979	1045.8766	163.10295
333	1.655	-624.97388	130.72229	-759.66077	-610.84277	138.68202	-705.81433	-446.42349	541.67365	-843.37512	-436.78513	520.87817	-743.69348	-564.5531	943.01923	-871.05334	-501.9371	1184.3229	-621.99554	-307.42322	1004.1763	-261.65009	-346.45367	1084.1477	-258.27945	-344.7756	943.84985	154.31204	-353.1622	1043.5781	165.66118
